<?xml version="1.0" encoding="utf-8"?>
<!-- Generator: Adobe Illustrator 27.5.0, SVG Export Plug-In . SVG Version: 6.00 Build 0)  -->
<svg version="1.1" id="Warstwa_1" xmlns="http://www.w3.org/2000/svg" xmlns:xlink="http://www.w3.org/1999/xlink" x="0px" y="0px"
	 viewBox="0 0 48 48" style="enable-background:new 0 0 48 48;" xml:space="preserve">
<style type="text/css">
	.st0{fill:#FFFFFF;}
</style>
<path class="st0" d="M8,38v-3h4.2V19.7c0-2.8,0.8-5.3,2.5-7.5s3.8-3.6,6.5-4.1V6.6c0-0.8,0.3-1.4,0.8-1.9C22.6,4.2,23.2,4,24,4
	c0.8,0,1.4,0.3,2,0.8s0.8,1.1,0.8,1.9v1.4c2.7,0.6,4.9,1.9,6.6,4.1c1.7,2.2,2.5,4.7,2.5,7.5V35H40v3H8z M24,44c-1.1,0-2-0.4-2.8-1.2
	C20.4,42,20,41.1,20,40h8c0,1.1-0.4,2-1.2,2.8S25.1,44,24,44z M15.2,35h17.7V19.7c0-2.5-0.9-4.6-2.6-6.3c-1.7-1.7-3.8-2.6-6.2-2.6
	s-4.6,0.9-6.3,2.6s-2.6,3.8-2.6,6.3V35z"/>
</svg>
